<svg xmlns="http://www.w3.org/2000/svg" width="15" height="14" viewBox="0 0 15 14" fill="none">
  <g clip-path="url(#clip0_532_2628)">
    <path d="M14.21 6.54542L1.21032 0.545569C1.00332 0.451571 0.756329 0.50757 0.612332 0.685565C0.541871 0.771783 0.50239 0.879157 0.500214 0.990484C0.498038 1.10181 0.533294 1.21064 0.600333 1.29955L4.87523 6.99941L0.600333 12.6993C0.462336 12.8823 0.467336 13.1363 0.611332 13.3133C0.70833 13.4343 0.853326 13.4993 1.00032 13.4993C1.07132 13.4993 1.14232 13.4843 1.20932 13.4533L14.209 7.4534C14.387 7.3714 14.5 7.19441 14.5 6.99941C14.5 6.80442 14.387 6.62742 14.21 6.54542Z" fill="#EEEEEE"/>
  </g>
  <defs>
    <clipPath id="clip0_532_2628">
      <rect width="14" height="14" fill="white" transform="translate(0.5)"/>
    </clipPath>
  </defs>
</svg>