<svg xmlns="http://www.w3.org/2000/svg" width="21" height="20" viewBox="0 0 21 20" fill="none">
  <path d="M19.875 7.49982C19.8755 7.58208 19.8597 7.66361 19.8286 7.73976C19.7975 7.81591 19.7517 7.88517 19.6938 7.94357L15.9438 11.6936C15.8854 11.7515 15.8161 11.7973 15.74 11.8284C15.6638 11.8595 15.5823 11.8753 15.5 11.8748C15.4188 11.8758 15.3381 11.861 15.2625 11.8311C15.1474 11.7838 15.049 11.7032 14.98 11.5996C14.9109 11.4961 14.8744 11.3743 14.875 11.2498V9.37482H9.25001C9.08425 9.37482 8.92528 9.30897 8.80807 9.19176C8.69086 9.07455 8.62501 8.91558 8.62501 8.74982V6.24982C8.62501 6.08406 8.69086 5.92509 8.80807 5.80788C8.92528 5.69067 9.08425 5.62482 9.25001 5.62482H14.875V3.74982C14.8755 3.62621 14.9127 3.50553 14.9818 3.40304C15.0509 3.30056 15.1488 3.22086 15.2632 3.17403C15.3776 3.1272 15.5033 3.11534 15.6245 3.13996C15.7456 3.16458 15.8567 3.22456 15.9438 3.31232L19.6938 7.06232C19.8092 7.17873 19.8743 7.33586 19.875 7.49982ZM11.75 10.6248H6.12501V8.74982C6.1244 8.62643 6.08727 8.50598 6.01831 8.40366C5.94935 8.30133 5.85165 8.22171 5.73751 8.17482C5.62369 8.12696 5.49825 8.11388 5.377 8.13724C5.25576 8.1606 5.14415 8.21935 5.05626 8.30607L1.30626 12.0561C1.24833 12.1145 1.20251 12.1837 1.1714 12.2599C1.1403 12.336 1.12453 12.4176 1.12501 12.4998C1.12453 12.5821 1.1403 12.6636 1.1714 12.7398C1.20251 12.8159 1.24833 12.8852 1.30626 12.9436L5.05626 16.6936C5.11466 16.7515 5.18392 16.7973 5.26007 16.8284C5.33622 16.8595 5.41776 16.8753 5.50001 16.8748C5.582 16.8769 5.66334 16.8598 5.73751 16.8248C5.85165 16.7779 5.94935 16.6983 6.01831 16.596C6.08727 16.4937 6.1244 16.3732 6.12501 16.2498V14.3748H11.75C11.9158 14.3748 12.0747 14.309 12.192 14.1918C12.3092 14.0746 12.375 13.9156 12.375 13.7498V11.2498C12.375 11.0841 12.3092 10.9251 12.192 10.8079C12.0747 10.6907 11.9158 10.6248 11.75 10.6248Z" fill="#EEEEEE"/>
</svg>