<svg xmlns="http://www.w3.org/2000/svg" width="24" height="24" viewBox="0 0 24 24" fill="none">
  <path d="M22.489 13.9665C22.2742 13.9126 22.0593 13.9665 21.8714 14.1013C21.1732 14.6946 20.3676 15.1799 19.4814 15.5035C18.649 15.8271 17.736 15.9889 16.7693 15.9889C14.5942 15.9889 12.607 15.099 11.1838 13.6699C9.76058 12.2407 8.87442 10.2452 8.87442 8.06099C8.87442 7.14415 9.03554 6.25429 9.30407 5.44531C9.59946 4.58241 10.0291 3.8004 10.593 3.12626C10.8347 2.82964 10.781 2.39819 10.4856 2.1555C10.2976 2.02067 10.0828 1.96674 9.86799 2.02067C7.58547 2.64088 5.59833 4.01613 4.17511 5.8498C2.8056 7.6565 2 9.89466 2 12.3216C2 15.2608 3.18154 17.9304 5.11497 19.872C7.0484 21.8135 9.68002 23 12.6339 23C15.1044 23 17.3869 22.1371 19.2129 20.7079C21.0658 19.2518 22.4084 17.1754 22.9723 14.8024C23.0798 14.4249 22.8649 14.0474 22.489 13.9665Z" fill="#353535"/>
</svg>