<svg xmlns="http://www.w3.org/2000/svg" width="60" height="60" viewBox="0 0 60 60" fill="none">
  <g clip-path="url(#clip0_181_342)">
    <path d="M30 0C13.4297 0 0 13.4297 0 30C0 46.5703 13.4297 60 30 60C46.5703 60 60 46.5703 60 30C60 13.4297 46.5703 0 30 0ZM26.8359 26.9883C27.1875 27.2812 27.6328 27.4336 28.0898 27.4336H31.4531C35.9297 27.4336 39.5625 31.0547 39.5625 35.5312C39.5625 39.4336 36.7852 42.7734 32.9531 43.5V44.5664C32.9883 46.2539 31.6406 47.6484 29.9531 47.6836C28.2656 47.7188 26.8711 46.3711 26.8359 44.6836V43.6406H23.0391C21.3516 43.6055 20.0039 42.2109 20.0391 40.5234C20.0742 38.8828 21.3984 37.5586 23.0391 37.5234H31.4531C32.5547 37.5938 33.5039 36.7734 33.5742 35.6719C33.6445 34.5703 32.8242 33.6211 31.7227 33.5508C31.6289 33.5391 31.5352 33.5391 31.4531 33.5508H28.0898C23.625 33.5508 19.9922 29.9414 19.9805 25.4648V24.457C19.9805 20.4609 22.8984 17.0742 26.8359 16.4531V15.4336C26.8008 13.7461 28.1484 12.3516 29.8359 12.3164C31.5234 12.2812 32.918 13.6289 32.9531 15.3164V16.3594H36.5039C38.1914 16.3945 39.5391 17.7891 39.5039 19.4766C39.4688 21.1172 38.1445 22.4414 36.5039 22.4766H28.0898C26.9883 22.4766 26.0977 23.3672 26.0977 24.4688V25.4531C26.0977 26.0508 26.3672 26.6133 26.8359 26.9883Z" fill="url(#paint0_linear_181_342)"/>
  </g>
  <defs>
    <linearGradient id="paint0_linear_181_342" x1="30" y1="0.172266" x2="30" y2="59.6098" gradientUnits="userSpaceOnUse">
      <stop stop-color="#63EAFE"/>
      <stop offset="1" stop-color="#B1F4FE"/>
    </linearGradient>
    <clipPath id="clip0_181_342">
      <rect width="60" height="60" fill="white"/>
    </clipPath>
  </defs>
</svg>