<svg xmlns="http://www.w3.org/2000/svg" width="33" height="33" viewBox="0 0 33 33" fill="none">
  <g clip-path="url(#clip0_209_240)">
    <path d="M27.5704 15.2348C27.4175 14.9024 27.0851 14.6891 26.7189 14.6891C26.3526 14.6891 26.0202 14.9024 25.8673 15.2348C25.6471 15.7121 25.3912 16.1721 25.1019 16.611C24.6551 15.5818 24.5754 14.4354 24.4939 13.2415C24.3272 10.8233 24.1386 8.08369 20.6702 6.34949C20.3799 6.20573 20.0347 6.21948 19.7582 6.39068C19.4816 6.56189 19.3132 6.86318 19.3132 7.18821V11.13C19.3132 11.6327 18.914 12.042 18.4232 12.042C17.9453 12.042 17.438 11.7197 17.438 11.1237V9.36747C17.438 5.41651 14.92 1.79747 11.1714 0.54851C10.8125 0.428559 10.416 0.536634 10.166 0.82323C10.0447 0.963427 9.96754 1.13643 9.9444 1.32041C9.92126 1.50438 9.95313 1.69109 10.036 1.85697C13.6042 8.99436 9.83091 14.3137 8.01614 16.5561L7.06478 15.1113C6.87801 14.8265 6.54009 14.6571 6.21143 14.6919C6.04461 14.7044 5.88419 14.7614 5.74684 14.8568C5.60949 14.9523 5.50022 15.0829 5.4304 15.2349C4.68782 16.8501 4.31152 18.5587 4.31152 20.3149C4.31152 27.0338 9.75496 32.5001 16.4464 32.5001C23.1974 32.5001 28.6893 27.0338 28.6893 20.3149C28.6893 18.5585 28.313 16.85 27.5704 15.2348Z" fill="url(#paint0_linear_209_240)"/>
    <path d="M16.5002 15.6267C12.8816 15.6267 9.93696 18.5714 9.93696 22.19C9.93696 25.8086 12.8816 28.7533 16.5002 28.7533C20.1188 28.7533 23.0635 25.8086 23.0635 22.19C23.0635 18.5714 20.1188 15.6267 16.5002 15.6267ZM18.5695 24.2593C18.2033 24.6255 17.61 24.6255 17.2437 24.2593L15.8373 22.8529C15.7502 22.7659 15.6811 22.6625 15.6339 22.5488C15.5868 22.435 15.5625 22.3131 15.5625 22.19V20.3148C15.5625 19.7965 15.9819 19.3772 16.5001 19.3772C17.0184 19.3772 17.4378 19.7965 17.4378 20.3148V21.8018L18.5695 22.9335C18.9358 23.2998 18.9358 23.8931 18.5695 24.2593ZM7.12413 8.12588C6.60588 8.12588 6.18652 8.54524 6.18652 9.06349V10.9387C6.18652 11.457 6.60588 11.8763 7.12413 11.8763C7.64238 11.8763 8.06174 11.457 8.06174 10.9387V9.06349C8.06174 8.54524 7.64238 8.12588 7.12413 8.12588ZM27.7515 8.12588C27.2333 8.12588 26.8139 8.54524 26.8139 9.06349V10.9387C26.8139 11.457 27.2333 11.8763 27.7515 11.8763C28.2698 11.8763 28.6891 11.457 28.6891 10.9387V9.06349C28.6891 8.54524 28.2698 8.12588 27.7515 8.12588ZM18.3754 4.25043C18.8937 4.25043 19.313 3.83107 19.313 3.31282V1.43761C19.313 0.919361 18.8937 0.5 18.3754 0.5C17.8572 0.5 17.4378 0.919361 17.4378 1.43761V3.31282C17.4378 3.83107 17.8572 4.25043 18.3754 4.25043Z" fill="url(#paint1_linear_209_240)"/>
  </g>
  <defs>
    <linearGradient id="paint0_linear_209_240" x1="16.5004" y1="32.4999" x2="16.5004" y2="0.500193" gradientUnits="userSpaceOnUse">
      <stop stop-color="#FD5900"/>
      <stop offset="1" stop-color="#FFDE00"/>
    </linearGradient>
    <linearGradient id="paint1_linear_209_240" x1="17.4378" y1="28.7533" x2="17.4378" y2="0.5" gradientUnits="userSpaceOnUse">
      <stop stop-color="#FFE59A"/>
      <stop offset="1" stop-color="#FFFFD5"/>
    </linearGradient>
    <clipPath id="clip0_209_240">
      <rect width="32" height="32" fill="white" transform="translate(0.5 0.5)"/>
    </clipPath>
  </defs>
</svg>