<svg xmlns="http://www.w3.org/2000/svg" width="24" height="24" viewBox="0 0 24 24" fill="none">
  <g clip-path="url(#clip0_111_3595)">
    <path d="M13.4062 24H10.5938C10.427 24 10.2657 23.9407 10.1386 23.8328C10.0115 23.7249 9.92691 23.5753 9.89991 23.4107L9.46753 20.7766C8.81265 20.5877 8.18117 20.3255 7.58508 19.995L5.44805 21.5214C5.31261 21.6182 5.14724 21.6637 4.98137 21.65C4.8155 21.6363 4.65987 21.5641 4.54219 21.4464L2.55352 19.4578C2.43582 19.3401 2.36369 19.1845 2.34996 19.0186C2.33623 18.8528 2.38178 18.6874 2.47852 18.552L4.00491 16.4149C3.67441 15.8188 3.41224 15.1874 3.22336 14.5325L0.589266 14.1001C0.424724 14.0731 0.275137 13.9885 0.167202 13.8614C0.0592675 13.7343 8.04673e-06 13.573 0 13.4062L0 10.5938C2.83499e-07 10.427 0.0592581 10.2657 0.167195 10.1386C0.275133 10.0115 0.424724 9.92691 0.589266 9.89991L3.22336 9.46758C3.41224 8.81269 3.67441 8.18121 4.00491 7.58512L2.47852 5.44809C2.38178 5.31265 2.33623 5.14729 2.34996 4.98142C2.36369 4.81554 2.43582 4.65992 2.55352 4.54223L4.54219 2.55352C4.65987 2.43582 4.8155 2.36369 4.98137 2.34996C5.14724 2.33623 5.31261 2.38178 5.44805 2.47852L7.58508 4.00491C8.18117 3.67441 8.81265 3.41224 9.46753 3.22336L9.89991 0.589219C9.92692 0.424685 10.0115 0.275105 10.1386 0.167177C10.2657 0.0592496 10.427 -1.54095e-06 10.5938 0L13.4062 0C13.573 2.83529e-07 13.7343 0.0592581 13.8614 0.167195C13.9885 0.275133 14.0731 0.424724 14.1001 0.589266L14.5325 3.22336C15.1874 3.41224 15.8188 3.67441 16.4149 4.00491L18.552 2.47852C18.6874 2.38177 18.8528 2.33621 19.0186 2.34995C19.1845 2.36368 19.3401 2.43581 19.4578 2.55352L21.4465 4.54219C21.5642 4.65987 21.6363 4.8155 21.65 4.98137C21.6638 5.14724 21.6182 5.31261 21.5215 5.44805L19.9951 7.58508C20.3256 8.18118 20.5877 8.81265 20.7766 9.46753L23.4107 9.89986C23.5753 9.92688 23.7249 10.0115 23.8328 10.1386C23.9407 10.2657 24 10.427 24 10.5938V13.4062C24 13.573 23.9407 13.7343 23.8328 13.8614C23.7249 13.9885 23.5753 14.0731 23.4107 14.1001L20.7766 14.5324C20.5878 15.1873 20.3256 15.8188 19.9951 16.4149L21.5215 18.5519C21.6182 18.6873 21.6638 18.8527 21.65 19.0186C21.6363 19.1845 21.5642 19.3401 21.4465 19.4578L19.4578 21.4465C19.3401 21.5642 19.1845 21.6363 19.0186 21.65C18.8528 21.6638 18.6874 21.6182 18.552 21.5215L16.4149 19.9951C15.8188 20.3256 15.1874 20.5878 14.5325 20.7766L14.1001 23.4107C14.0731 23.5753 13.9885 23.7249 13.8614 23.8328C13.7343 23.9407 13.573 24 13.4062 24Z" fill="url(#paint0_linear_111_3595)"/>
    <path d="M12 16.9219C9.28608 16.9219 7.07812 14.7139 7.07812 12C7.07812 9.28608 9.28608 7.07812 12 7.07812C14.7139 7.07812 16.9219 9.28608 16.9219 12C16.9219 14.7139 14.7139 16.9219 12 16.9219Z" fill="url(#paint1_linear_111_3595)"/>
  </g>
  <defs>
    <linearGradient id="paint0_linear_111_3595" x1="12" y1="24" x2="12" y2="0" gradientUnits="userSpaceOnUse">
      <stop stop-color="#112D60"/>
      <stop offset="1" stop-color="#8833EE"/>
    </linearGradient>
    <linearGradient id="paint1_linear_111_3595" x1="12" y1="16.9219" x2="12" y2="7.07812" gradientUnits="userSpaceOnUse">
      <stop stop-color="#ADDCFF"/>
      <stop offset="0.503" stop-color="#EAF6FF"/>
      <stop offset="1" stop-color="#EAF6FF"/>
    </linearGradient>
    <clipPath id="clip0_111_3595">
      <rect width="24" height="24" fill="white"/>
    </clipPath>
  </defs>
</svg>