<svg xmlns="http://www.w3.org/2000/svg" width="32" height="32" viewBox="0 0 32 32" fill="none">
  <g clip-path="url(#clip0_53_1708)" filter="url(#filter0_d_53_1708)">
    <path d="M15.9996 5.98884C12.685 5.98884 9.98841 8.68592 9.98841 12.0005C9.98841 15.3151 12.685 18.0122 15.9996 18.0122C19.3137 18.0122 22.0107 15.3157 22.0107 12.0005C22.0107 8.68539 19.3137 5.98884 15.9996 5.98884ZM15.9996 4.22179C15.6886 4.22179 15.3903 4.09829 15.1704 3.87844C14.9505 3.6586 14.8268 3.3604 14.8267 3.04942V1.1729C14.8267 0.861825 14.9503 0.563494 15.1702 0.343533C15.3902 0.123573 15.6885 0 15.9996 0C16.3106 0 16.609 0.123573 16.8289 0.343533C17.0489 0.563494 17.1725 0.861825 17.1725 1.1729V3.04942C17.1723 3.3604 17.0487 3.6586 16.8288 3.87844C16.6088 4.09829 16.3106 4.22179 15.9996 4.22179ZM15.9996 19.7777C15.8455 19.7777 15.693 19.808 15.5507 19.867C15.4084 19.9259 15.2791 20.0123 15.1702 20.1212C15.0613 20.2301 14.9749 20.3594 14.916 20.5017C14.857 20.644 14.8267 20.7966 14.8267 20.9506V22.8266C14.8267 23.1376 14.9503 23.436 15.1702 23.6559C15.3902 23.8759 15.6885 23.9995 15.9996 23.9995C16.3106 23.9995 16.609 23.8759 16.8289 23.6559C17.0489 23.436 17.1725 23.1376 17.1725 22.8266V20.9506C17.1723 20.6395 17.0487 20.3413 16.8288 20.1214C16.6089 19.9014 16.3106 19.7778 15.9996 19.7777ZM21.499 6.50009C21.2792 6.28006 21.1557 5.98178 21.1557 5.67077C21.1557 5.35976 21.2792 5.06148 21.499 4.84145L22.826 3.51444C22.9345 3.40366 23.0638 3.3155 23.2066 3.25504C23.3494 3.19459 23.5028 3.16304 23.6578 3.16224C23.8129 3.16143 23.9665 3.19137 24.11 3.25034C24.2534 3.3093 24.3836 3.39611 24.4933 3.50575C24.6029 3.61539 24.6897 3.74569 24.7487 3.88909C24.8077 4.0325 24.8376 4.18617 24.8368 4.34123C24.836 4.49628 24.8045 4.64963 24.744 4.79242C24.6835 4.9352 24.5954 5.06458 24.4846 5.17307L23.1576 6.50009C22.9376 6.72002 22.6393 6.84358 22.3283 6.84358C22.0172 6.84358 21.7189 6.72002 21.499 6.50009ZM10.4997 17.5004C10.3908 17.3914 10.2616 17.3049 10.1192 17.2459C9.97694 17.1869 9.8244 17.1565 9.67035 17.1565C9.51629 17.1565 9.36375 17.1869 9.22144 17.2459C9.07914 17.3049 8.94987 17.3914 8.84103 17.5004L7.51401 18.8269C7.29784 19.0477 7.17748 19.3448 7.17909 19.6537C7.1807 19.9627 7.30414 20.2585 7.52261 20.477C7.74107 20.6954 8.03691 20.8189 8.34586 20.8205C8.65481 20.8221 8.95192 20.7017 9.17265 20.4856L10.4997 19.158C10.6086 19.0492 10.695 18.92 10.754 18.7778C10.8129 18.6356 10.8433 18.4832 10.8433 18.3292C10.8433 18.1753 10.8129 18.0228 10.754 17.8806C10.695 17.7384 10.6086 17.6092 10.4997 17.5004ZM23.7773 12C23.7773 11.3522 24.3023 10.8271 24.9501 10.8271H26.8267C26.9828 10.8238 27.138 10.8517 27.2831 10.9091C27.4283 10.9665 27.5606 11.0524 27.6721 11.1616C27.7837 11.2708 27.8723 11.4012 27.9329 11.5451C27.9934 11.689 28.0245 11.8436 28.0245 11.9997C28.0245 12.1559 27.9934 12.3104 27.9329 12.4543C27.8723 12.5983 27.7837 12.7287 27.6721 12.8379C27.5606 12.9471 27.4283 13.0329 27.2831 13.0904C27.138 13.1478 26.9828 13.1757 26.8267 13.1724H24.9501C24.7961 13.1724 24.6436 13.1422 24.5013 13.0833C24.359 13.0244 24.2297 12.938 24.1208 12.8292C24.0119 12.7203 23.9255 12.591 23.8665 12.4488C23.8076 12.3065 23.7773 12.154 23.7773 12ZM8.22136 12C8.22136 11.846 8.19103 11.6935 8.13208 11.5512C8.07314 11.4089 7.98674 11.2796 7.87783 11.1706C7.76892 11.0617 7.63962 10.9753 7.49732 10.9164C7.35501 10.8574 7.20249 10.8271 7.04847 10.8271H5.17247C5.01638 10.8238 4.86119 10.8517 4.71601 10.9091C4.57084 10.9665 4.43858 11.0524 4.32702 11.1616C4.21545 11.2708 4.12681 11.4012 4.06629 11.5451C4.00578 11.689 3.97461 11.8436 3.97461 11.9997C3.97461 12.1559 4.00578 12.3104 4.06629 12.4543C4.12681 12.5983 4.21545 12.7287 4.32702 12.8379C4.43858 12.9471 4.57084 13.0329 4.71601 13.0904C4.86119 13.1478 5.01638 13.1757 5.17247 13.1724H7.049C7.35993 13.1724 7.65813 13.0488 7.87799 12.829C8.09785 12.6091 8.22136 12.3109 8.22136 12ZM21.499 17.5004C21.719 17.2806 22.0173 17.1572 22.3283 17.1572C22.6393 17.1572 22.9376 17.2806 23.1576 17.5004L24.4846 18.8275C24.7045 19.0474 24.828 19.3457 24.8279 19.6567C24.8279 19.9677 24.7043 20.266 24.4843 20.4858C24.3754 20.5947 24.2461 20.6811 24.1039 20.74C23.9616 20.7989 23.8091 20.8292 23.6551 20.8292C23.3441 20.8291 23.0458 20.7055 22.826 20.4856L21.499 19.1585C21.39 19.0497 21.3036 18.9205 21.2446 18.7782C21.1856 18.636 21.1553 18.4835 21.1553 18.3295C21.1553 18.1755 21.1856 18.023 21.2446 17.8808C21.3036 17.7385 21.39 17.6093 21.499 17.5004ZM10.4997 6.50009C10.7196 6.28013 10.8432 5.98182 10.8432 5.67077C10.8432 5.35972 10.7196 5.06141 10.4997 4.84145L9.17265 3.51497C8.95125 3.30249 8.65539 3.18524 8.34855 3.18836C8.0417 3.19149 7.74829 3.31475 7.53127 3.5317C7.31425 3.74865 7.1909 4.04202 7.18767 4.34887C7.18444 4.65571 7.3016 4.95161 7.51401 5.17307L8.84103 6.50009C8.94987 6.60912 9.07914 6.69561 9.22144 6.75463C9.36375 6.81364 9.51629 6.84402 9.67035 6.84402C9.8244 6.84402 9.97694 6.81364 10.1192 6.75463C10.2616 6.69561 10.3908 6.60912 10.4997 6.50009Z" fill="#EEEEEE"/>
  </g>
  <defs>
    <filter id="filter0_d_53_1708" x="0" y="0" width="32" height="32" filterUnits="userSpaceOnUse" color-interpolation-filters="sRGB">
      <feFlood flood-opacity="0" result="BackgroundImageFix"/>
      <feColorMatrix in="SourceAlpha" type="matrix" values="0 0 0 0 0 0 0 0 0 0 0 0 0 0 0 0 0 0 127 0" result="hardAlpha"/>
      <feOffset dy="4"/>
      <feGaussianBlur stdDeviation="2"/>
      <feComposite in2="hardAlpha" operator="out"/>
      <feColorMatrix type="matrix" values="0 0 0 0 0 0 0 0 0 0 0 0 0 0 0 0 0 0 0.25 0"/>
      <feBlend mode="normal" in2="BackgroundImageFix" result="effect1_dropShadow_53_1708"/>
      <feBlend mode="normal" in="SourceGraphic" in2="effect1_dropShadow_53_1708" result="shape"/>
    </filter>
    <clipPath id="clip0_53_1708">
      <rect width="24" height="24" fill="white" transform="translate(4)"/>
    </clipPath>
  </defs>
</svg>