<svg width="41" height="32" viewBox="0 0 41 32" fill="none" xmlns="http://www.w3.org/2000/svg">
<g id="Group 1">
<path id="Union" d="M40.959 16L24.959 32L20.4795 27.5205L16 32L0 16L16 0L20.4795 4.47949L24.959 0L40.959 16Z" fill="url(#paint0_linear_86_4920)"/>
<g id="Exclude" filter="url(#filter0_d_86_4920)">
<path d="M20.543 11.392L19.2832 12.6527L16.8301 10.1996L11.4795 15.5502L16.8301 20.9008L19.2822 18.4476L20.543 19.7084L16.8311 23.4213L8.95996 15.5511L16.8311 7.68005L20.543 11.392ZM32.126 15.5511L24.2559 23.4213L20.543 19.7084L21.8027 18.4486L24.2549 20.9008L29.6055 15.5502L24.2549 10.1996L21.8018 12.6517L20.543 11.392L24.2559 7.68005L32.126 15.5511ZM24.7012 15.5511L21.8027 18.4486L20.542 17.1879L22.1807 15.5502L20.542 13.9115L21.8018 12.6517L24.7012 15.5511ZM20.542 13.9115L18.9043 15.5502L20.542 17.1879L19.2822 18.4476L16.3848 15.5511L19.2832 12.6527L20.542 13.9115Z" fill="#F0F0F0"/>
</g>
</g>
<defs>
<filter id="filter0_d_86_4920" x="7.77194" y="6.49203" width="25.5421" height="18.1173" filterUnits="userSpaceOnUse" color-interpolation-filters="sRGB">
<feFlood flood-opacity="0" result="BackgroundImageFix"/>
<feColorMatrix in="SourceAlpha" type="matrix" values="0 0 0 0 0 0 0 0 0 0 0 0 0 0 0 0 0 0 127 0" result="hardAlpha"/>
<feOffset/>
<feGaussianBlur stdDeviation="0.594013"/>
<feComposite in2="hardAlpha" operator="out"/>
<feColorMatrix type="matrix" values="0 0 0 0 1 0 0 0 0 1 0 0 0 0 1 0 0 0 0.42 0"/>
<feBlend mode="normal" in2="BackgroundImageFix" result="effect1_dropShadow_86_4920"/>
<feBlend mode="normal" in="SourceGraphic" in2="effect1_dropShadow_86_4920" result="shape"/>
</filter>
<linearGradient id="paint0_linear_86_4920" x1="20.4795" y1="0" x2="20.4795" y2="32" gradientUnits="userSpaceOnUse">
<stop stop-color="#2DD7CC"/>
<stop offset="1" stop-color="#972BDF"/>
</linearGradient>
</defs>
</svg>
