<svg xmlns="http://www.w3.org/2000/svg" width="33" height="33" viewBox="0 0 33 33" fill="none">
  <g clip-path="url(#clip0_209_247)">
    <path fill-rule="evenodd" clip-rule="evenodd" d="M23.0706 22.3582H9.92941C6.68629 22.3582 4.04306 19.7337 4.04306 16.4906C4.04306 13.2663 6.68629 10.623 9.92941 10.623H23.0706C26.3137 10.623 28.9382 13.2663 28.9382 16.4906C28.9382 19.7337 26.3137 22.3582 23.0706 22.3582ZM16.4906 32.5C16.022 32.5 15.5721 32.4813 15.1221 32.425V30.1942C15.5721 30.2317 16.022 30.2692 16.4906 30.2692C16.9593 30.2692 17.4279 30.2317 17.8779 30.1942V32.425C17.4279 32.4813 16.9593 32.5 16.4906 32.5ZM14.3723 32.35C7.24868 31.394 1.58729 25.7513 0.649971 18.6277H2.89953C3.8181 24.5141 8.48594 29.1819 14.3723 30.1005V32.35ZM18.6277 30.1005C24.5141 29.1819 29.1819 24.5141 30.1005 18.6277H32.35C31.394 25.7513 25.7513 31.394 18.6277 32.35V30.1005ZM0.556239 17.8779C0.518746 17.4279 0.5 16.9593 0.5 16.4906C0.5 16.022 0.518746 15.5721 0.556239 15.1221H2.8058C2.74956 15.5721 2.73081 16.022 2.73081 16.4906C2.73081 16.9593 2.74956 17.4279 2.8058 17.8779H0.556239ZM0.649971 14.3723C1.58729 7.24868 7.24868 1.58729 14.3723 0.649971V2.89953C8.48594 3.8181 3.8181 8.48594 2.89953 14.3723H0.649971ZM15.1221 0.556239C15.5721 0.518746 16.022 0.5 16.4906 0.5C16.9593 0.5 17.4279 0.518746 17.8779 0.556239V2.8058C17.4279 2.74956 16.9593 2.73081 16.4906 2.73081C16.022 2.73081 15.5721 2.74956 15.1221 2.8058V0.556239ZM18.6277 0.649971C25.7513 1.58729 31.394 7.24868 32.35 14.3723H30.1005C29.1819 8.48594 24.5141 3.8181 18.6277 2.89953V0.649971ZM32.425 15.1221C32.4813 15.5721 32.5 16.022 32.5 16.4906C32.5 16.9593 32.4813 17.4279 32.425 17.8779H30.1942C30.2317 17.4279 30.2692 16.9593 30.2692 16.4906C30.2692 16.022 30.2317 15.5721 30.1942 15.1221H32.425ZM25.4701 19.0026C24.6828 19.0026 24.0454 18.3465 24.0454 17.5592C24.0454 17.353 24.2141 17.1842 24.4203 17.1842C24.6265 17.1842 24.7953 17.353 24.7953 17.5592C24.7953 17.9341 25.0952 18.2528 25.4701 18.2528C25.8451 18.2528 26.1637 17.9341 26.1637 17.5592C26.1637 17.1842 25.8451 16.8656 25.4701 16.8656C24.6828 16.8656 24.0454 16.2282 24.0454 15.4408C24.0454 14.6347 24.6828 13.9974 25.4701 13.9974C26.2575 13.9974 26.9136 14.6535 26.9136 15.4408C26.9136 15.647 26.7449 15.8158 26.5387 15.8158C26.3325 15.8158 26.1637 15.647 26.1637 15.4408C26.1637 15.0659 25.8451 14.7472 25.4701 14.7472C25.0952 14.7472 24.7953 15.0659 24.7953 15.4408C24.7953 15.8158 25.0952 16.1157 25.4701 16.1157C26.2575 16.1157 26.9136 16.7718 26.9136 17.5592C26.9136 18.3465 26.2762 19.0026 25.4701 19.0026ZM21.8896 19.0026C21.6834 19.0026 21.5146 18.8339 21.5146 18.6277V16.2094L20.0712 14.616C19.94 14.466 19.94 14.2411 20.0899 14.0911C20.2586 13.9599 20.4836 13.9599 20.6336 14.1286L21.8896 15.5158L23.1456 14.1286C23.2955 13.9599 23.5205 13.9599 23.6705 14.0911C23.8204 14.2411 23.8392 14.466 23.708 14.616L22.2645 16.2094V18.6277C22.2645 18.8339 22.0958 19.0026 21.8896 19.0026ZM20.0149 19.0026C19.865 19.0026 19.715 18.9089 19.6588 18.7402L19.2651 17.5404H17.9153L17.5029 18.7402C17.4467 18.9464 17.2217 19.0401 17.0343 18.9839C16.8281 18.9089 16.7343 18.7027 16.7906 18.4965L17.2592 17.1093C17.278 17.0718 17.278 17.0343 17.2967 17.0155L18.234 14.2411C18.2903 14.0911 18.4215 13.9974 18.5902 13.9974C18.7402 13.9974 18.8902 14.0911 18.9464 14.2411L20.3711 18.4965C20.4461 18.7027 20.3336 18.9089 20.1462 18.9839C20.1087 18.9839 20.0524 19.0026 20.0149 19.0026ZM19.0026 16.7906L18.5902 15.5533L18.1591 16.7906H19.0026ZM14.9909 19.0026H13.9036C13.6974 19.0026 13.5287 18.8339 13.5287 18.6277V14.3723C13.5287 14.1661 13.6974 13.9974 13.9036 13.9974H14.9909C15.797 13.9974 16.4344 14.6535 16.4344 15.4408V17.5404C16.4344 18.3465 15.797 19.0026 14.9909 19.0026ZM14.2786 18.2528H14.9909C15.3658 18.2528 15.6845 17.9341 15.6845 17.5404V15.4596C15.6845 15.0659 15.3846 14.7472 14.9909 14.7472H14.2786V18.2528ZM10.9417 19.0026C10.1731 19.0026 9.55448 18.384 9.55448 17.6154V15.3658C9.55448 14.616 10.1731 13.9974 10.9417 13.9974C11.6916 13.9974 12.3102 14.616 12.3102 15.3658V17.6154C12.3102 18.384 11.6916 19.0026 10.9417 19.0026ZM10.9417 14.7472C10.5855 14.7472 10.3043 15.0284 10.3043 15.3658V17.6154C10.3043 17.9716 10.5855 18.2528 10.9417 18.2528C11.2791 18.2528 11.5603 17.9716 11.5603 17.6154V15.3658C11.5603 15.0284 11.2791 14.7472 10.9417 14.7472ZM7.51113 19.0026C6.72378 19.0026 6.08641 18.3465 6.08641 17.5592C6.08641 17.353 6.25513 17.1842 6.46134 17.1842C6.66755 17.1842 6.83626 17.353 6.83626 17.5592C6.83626 17.9341 7.1362 18.2528 7.51113 18.2528C7.9048 18.2528 8.20475 17.9341 8.20475 17.5592C8.20475 17.1842 7.9048 16.8656 7.51113 16.8656C7.30492 16.8656 7.1362 16.7156 7.1362 16.4906C7.1362 16.2844 7.30492 16.1157 7.51113 16.1157C7.9048 16.1157 8.20475 15.8158 8.20475 15.4408C8.20475 15.0472 7.9048 14.7472 7.51113 14.7472C7.1362 14.7472 6.83626 15.0659 6.83626 15.4408C6.83626 15.647 6.66755 15.8158 6.46134 15.8158C6.25513 15.8158 6.08641 15.647 6.08641 15.4408C6.08641 14.6347 6.72378 13.9974 7.51113 13.9974C8.31722 13.9974 8.9546 14.6347 8.9546 15.4408C8.9546 15.8533 8.76714 16.2282 8.48594 16.4906C8.76714 16.7531 8.9546 17.1467 8.9546 17.5592C8.9546 18.3465 8.31722 19.0026 7.51113 19.0026Z" fill="url(#paint0_linear_209_247)"/>
  </g>
  <defs>
    <linearGradient id="paint0_linear_209_247" x1="16.4969" y1="0.500075" x2="16.4969" y2="32.4936" gradientUnits="userSpaceOnUse">
      <stop stop-color="#DF7401"/>
      <stop offset="0.4" stop-color="#FFC534"/>
      <stop offset="0.812" stop-color="#FE8600"/>
      <stop offset="1" stop-color="#FD6300"/>
    </linearGradient>
    <clipPath id="clip0_209_247">
      <rect width="32" height="32" fill="white" transform="translate(0.5 0.5)"/>
    </clipPath>
  </defs>
</svg>