<svg xmlns="http://www.w3.org/2000/svg" width="180" height="180" viewBox="0 0 180 180" fill="none">
  <path d="M174.826 173.1C174.136 174.069 173.225 174.861 172.168 175.408C171.112 175.956 169.941 176.244 168.751 176.25H11.2508C10.0609 176.244 8.88941 175.956 7.83308 175.408C6.77675 174.861 5.8659 174.069 5.17578 173.1C34.8008 107.212 28.6508 120.9 37.5008 101.25H142.501C152.026 122.437 144.976 106.8 174.826 173.1Z" fill="url(#paint0_linear_441_23546)"/>
  <path d="M37.5004 52.5V101.25C27.9754 122.437 35.0254 106.8 5.17539 173.1C4.23486 171.846 3.73401 170.317 3.75039 168.75V116.25L37.5004 52.5Z" fill="url(#paint1_linear_441_23546)" fill-opacity="0.5"/>
  <path d="M176.25 116.25V168.75C176.266 170.317 175.766 171.846 174.825 173.1C145.2 107.212 151.35 120.9 142.5 101.25V52.5L176.25 116.25Z" fill="url(#paint2_linear_441_23546)" fill-opacity="0.5"/>
  <path d="M176.25 116.25V168.75C176.25 170.739 175.46 172.647 174.053 174.053C172.647 175.46 170.739 176.25 168.75 176.25H11.25C9.26088 176.25 7.35322 175.46 5.9467 174.053C4.54018 172.647 3.75 170.739 3.75 168.75V116.25H67.8375C68.7419 116.24 69.6195 116.557 70.3086 117.142C70.9977 117.728 71.4519 118.543 71.5875 119.437C72.1657 122.83 73.6666 125.999 75.9258 128.595C78.185 131.192 81.1152 133.116 84.3955 134.158C87.6758 135.2 91.1796 135.319 94.5229 134.501C97.8662 133.684 100.92 131.962 103.35 129.525C106.076 126.773 107.895 123.253 108.562 119.437C108.698 118.543 109.152 117.728 109.841 117.142C110.531 116.557 111.408 116.24 112.312 116.25H176.25Z" fill="url(#paint3_linear_441_23546)"/>
  <path d="M37.5 52.5H142.5V101.25H37.5V52.5Z" fill="url(#paint4_linear_441_23546)"/>
  <path d="M123.75 37.5C123.759 31.0748 121.933 24.7806 118.487 19.3572C115.042 13.9339 110.12 9.60668 104.3 6.88426C98.4802 4.16184 92.004 3.15731 85.6328 3.98872C79.2616 4.82014 73.2601 7.45296 68.3336 11.5777C63.4072 15.7025 59.7605 21.1479 57.8223 27.2738C55.884 33.3997 55.7347 39.9516 57.3918 46.1595C59.0489 52.3673 62.4437 57.9732 67.1771 62.3181C71.9104 66.6631 77.7858 69.5666 84.1125 70.6875L88.3125 79.1625C88.4756 79.4683 88.7188 79.7241 89.016 79.9024C89.3132 80.0808 89.6533 80.175 90 80.175C90.3466 80.175 90.6867 80.0808 90.9839 79.9024C91.2812 79.7241 91.5244 79.4683 91.6875 79.1625L95.8875 70.6875C103.688 69.3055 110.754 65.2233 115.848 59.1558C120.942 53.0884 123.739 45.4223 123.75 37.5Z" fill="url(#paint5_linear_441_23546)"/>
  <path d="M95.2872 37.5L103.912 28.9125C104.618 28.2064 105.015 27.2486 105.015 26.25C105.015 25.2514 104.618 24.2936 103.912 23.5875C103.206 22.8814 102.248 22.4846 101.25 22.4846C100.251 22.4846 99.2934 22.8814 98.5872 23.5875L89.9997 32.2125L81.4122 23.5875C81.0626 23.2378 80.6475 22.9605 80.1906 22.7713C79.7338 22.582 79.2442 22.4846 78.7497 22.4846C77.7511 22.4846 76.7934 22.8814 76.0872 23.5875C75.3811 24.2936 74.9844 25.2514 74.9844 26.25C74.9844 27.2486 75.3811 28.2064 76.0872 28.9125L84.7122 37.5L76.0872 46.0875C75.7376 46.4371 75.4602 46.8522 75.271 47.3091C75.0818 47.7659 74.9844 48.2555 74.9844 48.75C74.9844 49.7486 75.3811 50.7064 76.0872 51.4125C76.7934 52.1186 77.7511 52.5153 78.7497 52.5153C79.2442 52.5153 79.7338 52.4179 80.1906 52.2287C80.6475 52.0395 81.0626 51.7621 81.4122 51.4125L89.9997 42.7875L98.5872 51.4125C99.2934 52.1186 100.251 52.5153 101.25 52.5153C102.248 52.5153 103.206 52.1186 103.912 51.4125C104.618 50.7064 105.015 49.7486 105.015 48.75C105.015 47.7514 104.618 46.7936 103.912 46.0875L95.2872 37.5Z" fill="#FFB369"/>
  <path d="M41.25 142.5H18.75C16.6789 142.5 15 144.179 15 146.25V161.25C15 163.321 16.6789 165 18.75 165H41.25C43.3211 165 45 163.321 45 161.25V146.25C45 144.179 43.3211 142.5 41.25 142.5Z" fill="url(#paint6_linear_441_23546)"/>
  <path d="M33.75 157.5H26.25C25.2554 157.5 24.3016 157.105 23.5984 156.402C22.8951 155.698 22.5 154.745 22.5 153.75C22.5 152.755 22.8951 151.802 23.5984 151.098C24.3016 150.395 25.2554 150 26.25 150H33.75C34.7446 150 35.6984 150.395 36.4017 151.098C37.1049 151.802 37.5 152.755 37.5 153.75C37.5 154.745 37.1049 155.698 36.4017 156.402C35.6984 157.105 34.7446 157.5 33.75 157.5Z" fill="#FFB369"/>
  <path d="M63.75 165H56.25C55.2554 165 54.3016 164.605 53.5984 163.902C52.8951 163.198 52.5 162.245 52.5 161.25C52.5 160.255 52.8951 159.302 53.5984 158.598C54.3016 157.895 55.2554 157.5 56.25 157.5H63.75C64.7446 157.5 65.6984 157.895 66.4017 158.598C67.1049 159.302 67.5 160.255 67.5 161.25C67.5 162.245 67.1049 163.198 66.4017 163.902C65.6984 164.605 64.7446 165 63.75 165ZM71.25 150H56.25C55.2554 150 54.3016 149.605 53.5984 148.902C52.8951 148.198 52.5 147.245 52.5 146.25C52.5 145.255 52.8951 144.302 53.5984 143.598C54.3016 142.895 55.2554 142.5 56.25 142.5H71.25C72.2446 142.5 73.1984 142.895 73.9017 143.598C74.6049 144.302 75 145.255 75 146.25C75 147.245 74.6049 148.198 73.9017 148.902C73.1984 149.605 72.2446 150 71.25 150Z" fill="url(#paint7_linear_441_23546)"/>
  <defs>
    <linearGradient id="paint0_linear_441_23546" x1="90.0008" y1="176.25" x2="90.0008" y2="101.25" gradientUnits="userSpaceOnUse">
      <stop stop-color="#112D60"/>
      <stop offset="1" stop-color="#8833EE"/>
    </linearGradient>
    <linearGradient id="paint1_linear_441_23546" x1="4.40132" y1="60.0933" x2="38.4031" y2="60.5777" gradientUnits="userSpaceOnUse">
      <stop stop-color="#112D60"/>
      <stop offset="1" stop-color="#8833EE"/>
    </linearGradient>
    <linearGradient id="paint2_linear_441_23546" x1="143.151" y1="60.0933" x2="177.153" y2="60.5777" gradientUnits="userSpaceOnUse">
      <stop stop-color="#112D60"/>
      <stop offset="1" stop-color="#8833EE"/>
    </linearGradient>
    <linearGradient id="paint3_linear_441_23546" x1="90" y1="176.25" x2="90" y2="116.25" gradientUnits="userSpaceOnUse">
      <stop stop-color="#112D60"/>
      <stop offset="1" stop-color="#8833EE"/>
    </linearGradient>
    <linearGradient id="paint4_linear_441_23546" x1="90" y1="101.25" x2="90" y2="52.5" gradientUnits="userSpaceOnUse">
      <stop stop-color="#112D60"/>
      <stop offset="1" stop-color="#8833EE"/>
    </linearGradient>
    <linearGradient id="paint5_linear_441_23546" x1="90" y1="80.175" x2="90" y2="3.74998" gradientUnits="userSpaceOnUse">
      <stop stop-color="#D3E6F5"/>
      <stop offset="1" stop-color="#F0F7FC"/>
    </linearGradient>
    <linearGradient id="paint6_linear_441_23546" x1="15" y1="153.75" x2="45" y2="153.75" gradientUnits="userSpaceOnUse">
      <stop stop-color="#D3E6F5"/>
      <stop offset="1" stop-color="#F0F7FC"/>
    </linearGradient>
    <linearGradient id="paint7_linear_441_23546" x1="63.75" y1="165" x2="63.75" y2="142.5" gradientUnits="userSpaceOnUse">
      <stop stop-color="#112D60"/>
      <stop offset="1" stop-color="#8833EE"/>
    </linearGradient>
  </defs>
</svg>