<svg xmlns="http://www.w3.org/2000/svg" width="22" height="22" viewBox="0 0 22 22" fill="none">
  <path fill-rule="evenodd" clip-rule="evenodd" d="M14.0688 10.7422H11.2578V7.93116C12.751 8.05577 13.9442 9.24901 14.0688 10.7422ZM10.7422 11V7.93116C9.16395 8.06264 7.91957 9.38823 7.91957 11C7.91957 12.6985 9.30145 14.0804 11 14.0804C11.5792 14.0804 12.1219 13.9193 12.5855 13.64L10.7907 11.1508C10.7593 11.1068 10.7423 11.0541 10.7422 11ZM14.0688 11.2578H11.5036L13.0028 13.3375C13.6005 12.8244 13.9996 12.0875 14.0688 11.2578ZM14.5961 11C14.5961 9.01698 12.9826 7.40393 11 7.40393C9.01699 7.40393 7.40394 9.01698 7.40394 11C7.40394 12.983 9.01699 14.596 11 14.596C12.9826 14.596 14.5961 12.983 14.5961 11ZM2.82434 11C4.40258 8.23194 7.52082 6.51877 11 6.51877C14.4792 6.51877 17.5974 8.23194 19.1757 11C17.5974 13.768 14.4792 15.4812 11 15.4812C7.52082 15.4812 4.40258 13.768 2.82434 11ZM20.1107 11C20.1107 11.1422 20.2258 11.2578 20.3685 11.2578H21.3125C21.4547 11.2578 21.5703 11.1422 21.5703 11C21.5703 10.8578 21.4547 10.7422 21.3125 10.7422H20.3685C20.2258 10.7422 20.1107 10.8578 20.1107 11ZM1.88934 11C1.88934 10.8578 1.77418 10.7422 1.63152 10.7422H0.6875C0.545273 10.7422 0.429688 10.8578 0.429688 11C0.429688 11.1422 0.545273 11.2578 0.6875 11.2578H1.63152C1.77418 11.2578 1.88934 11.1422 1.88934 11ZM10.7422 16.0364V18.2686C10.1084 18.3893 9.62801 18.9475 9.62801 19.6156C9.62801 20.3723 10.2433 20.9876 11 20.9876C11.3665 20.9876 11.7111 20.845 11.9702 20.5859C12.2293 20.3268 12.372 19.9822 12.372 19.6156C12.372 18.9475 11.8916 18.3893 11.2578 18.2686V16.0364C11.1719 16.0385 11.0859 16.0398 11 16.0398C10.9141 16.0398 10.8281 16.0385 10.7422 16.0364ZM6.55445 15.0812L5.67832 15.9573C5.14465 15.5946 4.41031 15.6496 3.93766 16.1223C3.4027 16.6568 3.4027 17.5274 3.93766 18.0623C4.19676 18.3214 4.54137 18.4641 4.90789 18.4641C5.27441 18.4641 5.61859 18.3214 5.8777 18.0623C6.35035 17.5897 6.40535 16.8553 6.0427 16.3217L7.06535 15.299C6.89262 15.2311 6.72246 15.1585 6.55445 15.0812ZM7.06535 6.70096L6.0427 5.67831C6.40535 5.14463 6.35035 4.4103 5.8777 3.93764C5.61859 3.67854 5.27441 3.53588 4.90789 3.53588C4.54137 3.53588 4.19676 3.67854 3.93766 3.93764C3.4027 4.4726 3.4027 5.34315 3.93766 5.87768C4.20535 6.14538 4.55641 6.27901 4.90789 6.27901C5.1773 6.27901 5.44672 6.19995 5.67832 6.04268L6.55402 6.91881C6.72246 6.8419 6.89262 6.76928 7.06535 6.70096ZM11.2578 5.96362V3.73139C11.8916 3.61065 12.372 3.05249 12.372 2.38432C12.372 1.62764 11.7563 1.01233 11 1.01233C10.2433 1.01233 9.62801 1.62764 9.62801 2.38432C9.62801 3.05249 10.1084 3.61065 10.7422 3.73139V5.96362C10.8281 5.96147 10.9141 5.96018 11 5.96018C11.0859 5.96018 11.1719 5.96147 11.2578 5.96362ZM15.446 6.91924L16.3217 6.04311C16.5533 6.20038 16.8227 6.27944 17.0921 6.27944C17.4436 6.27944 17.7946 6.14581 18.0623 5.87811C18.3214 5.61901 18.4641 5.27483 18.4641 4.90831C18.4641 4.54178 18.3214 4.19717 18.0623 3.93807C17.8032 3.67897 17.4586 3.53631 17.0921 3.53631C16.7256 3.53631 16.3814 3.67897 16.1223 3.93807C15.6496 4.41073 15.5946 5.14506 15.9573 5.67874L14.9346 6.70139C15.1074 6.76928 15.2775 6.8419 15.446 6.91924ZM14.9346 15.299L15.9573 16.3217C15.5946 16.8553 15.6496 17.5897 16.1223 18.0623C16.3814 18.3214 16.7256 18.4641 17.0921 18.4641C17.4586 18.4641 17.8032 18.3214 18.0623 18.0623C18.3214 17.8032 18.4641 17.4586 18.4641 17.0921C18.4641 16.7256 18.3214 16.3814 18.0623 16.1223C17.5897 15.6496 16.8554 15.5946 16.3217 15.9573L15.4455 15.0812C15.2775 15.1585 15.1074 15.2311 14.9346 15.299Z" fill="#15DFFD"/>
</svg>