<svg xmlns="http://www.w3.org/2000/svg" width="10" height="10" viewBox="0 0 10 10" fill="none">
  <g clip-path="url(#clip0_388_2856)">
    <path d="M6.02565 1.35841L6.39232 0.991748C6.82565 0.558415 7.57982 0.558415 8.01315 0.991748L8.30899 1.28758C8.41572 1.39341 8.50043 1.51932 8.55824 1.65806C8.61606 1.7968 8.64582 1.94561 8.64582 2.09591C8.64582 2.24622 8.61606 2.39503 8.55824 2.53377C8.50043 2.67251 8.41572 2.79842 8.30899 2.90425L7.94232 3.27091L6.02565 1.35425V1.35841ZM5.58399 1.80008L1.78815 5.59591C1.66732 5.71675 1.59232 5.87508 1.57982 6.04591L1.46732 7.26675C1.45482 7.42091 1.50898 7.57091 1.61732 7.68341C1.71732 7.78341 1.84648 7.83758 1.98398 7.83758H2.02982L3.25065 7.72508C3.42148 7.70841 3.57982 7.63341 3.70065 7.51258L7.49649 3.71675L5.57982 1.80008H5.58399ZM9.47982 9.16675C9.47982 8.99591 9.33815 8.85425 9.16732 8.85425H0.833984C0.663151 8.85425 0.521484 8.99591 0.521484 9.16675C0.521484 9.33758 0.663151 9.47925 0.833984 9.47925H9.16732C9.33815 9.47925 9.47982 9.33758 9.47982 9.16675Z" fill="#D7D7D7"/>
  </g>
  <defs>
    <clipPath id="clip0_388_2856">
      <rect width="10" height="10" fill="white"/>
    </clipPath>
  </defs>
</svg>