<svg xmlns="http://www.w3.org/2000/svg" width="15" height="15" viewBox="0 0 15 15" fill="none">
  <g clip-path="url(#clip0_86_4797)">
    <path d="M0.5 7.5C0.5 3.634 3.634 0.5 7.5 0.5C11.366 0.5 14.5 3.634 14.5 7.5C14.5 11.366 11.366 14.5 7.5 14.5C3.634 14.5 0.5 11.366 0.5 7.5Z" fill="url(#paint0_linear_86_4797)"/>
    <path d="M10.042 11.754C9.98745 11.754 9.93271 11.741 9.88256 11.7147L7.50029 10.4622L5.11805 11.7147C5.06145 11.7444 4.99765 11.7577 4.93388 11.7531C4.8701 11.7485 4.80889 11.7261 4.75716 11.6886C4.70543 11.651 4.66524 11.5997 4.64114 11.5404C4.61704 11.4812 4.60999 11.4164 4.62078 11.3534L5.07575 8.70071L3.14845 6.82206C3.10265 6.77742 3.07025 6.72086 3.05491 6.65877C3.03958 6.59669 3.04193 6.53154 3.0617 6.47072C3.08146 6.4099 3.11785 6.35582 3.16676 6.3146C3.21566 6.27339 3.27512 6.24668 3.33841 6.2375L6.00186 5.85048L7.19298 3.43698C7.22128 3.37964 7.26507 3.33137 7.31937 3.29761C7.37368 3.26386 7.43635 3.24597 7.50029 3.24597C7.56424 3.24597 7.6269 3.26386 7.68121 3.29761C7.73552 3.33137 7.7793 3.37964 7.80761 3.43698L8.99873 5.85048L11.6622 6.2375C11.7255 6.2467 11.7849 6.27342 11.8338 6.31464C11.8827 6.35586 11.919 6.40994 11.9388 6.47075C11.9586 6.53157 11.9609 6.5967 11.9456 6.65878C11.9303 6.72086 11.8979 6.77742 11.8521 6.82206L9.92481 8.70071L10.3798 11.3534C10.3882 11.4026 10.3858 11.453 10.3727 11.5012C10.3597 11.5494 10.3362 11.5941 10.304 11.6323C10.2719 11.6704 10.2317 11.7011 10.1865 11.7221C10.1412 11.7432 10.0919 11.7541 10.042 11.754Z" fill="#FFFFFE"/>
  </g>
  <defs>
    <linearGradient id="paint0_linear_86_4797" x1="7.5" y1="0.264844" x2="7.5" y2="13.8747" gradientUnits="userSpaceOnUse">
      <stop stop-color="#FFF100"/>
      <stop offset="1" stop-color="#FAAF40"/>
    </linearGradient>
    <clipPath id="clip0_86_4797">
      <rect width="14" height="14" fill="white" transform="translate(0.5 0.5)"/>
    </clipPath>
  </defs>
</svg>