<svg xmlns="http://www.w3.org/2000/svg" width="14" height="14" viewBox="0 0 14 14" fill="none">
  <g clip-path="url(#clip0_317_8458)">
    <path d="M7 14C10.866 14 14 10.866 14 7C14 3.13401 10.866 0 7 0C3.13401 0 0 3.13401 0 7C0 10.866 3.13401 14 7 14Z" fill="#00A1F5"/>
    <path fill-rule="evenodd" clip-rule="evenodd" d="M3.16909 6.9261C5.20973 6.03702 6.57049 5.45088 7.25132 5.16771C9.1953 4.35915 9.59925 4.21869 9.86251 4.21404C9.92042 4.21303 10.0499 4.22738 10.1338 4.29544C10.2582 4.39639 10.2589 4.61553 10.2451 4.76056C10.1397 5.86743 9.6839 8.55349 9.452 9.7932C9.35386 10.3178 9.16065 10.4937 8.97362 10.5109C8.56713 10.5483 8.25844 10.2422 7.86472 9.98414C7.24864 9.58028 6.90058 9.32888 6.30255 8.9348C5.61143 8.47936 6.05946 8.22906 6.45332 7.81997C6.55641 7.71292 8.34745 6.0838 8.38212 5.93601C8.38647 5.91753 8.39049 5.84862 8.34955 5.81225C8.30862 5.77589 8.24822 5.7883 8.20463 5.7982C8.14283 5.81223 7.15862 6.46276 5.252 7.74978C4.97263 7.94162 4.71959 8.03508 4.49288 8.03019C4.24293 8.0248 3.76218 7.88887 3.40477 7.77269C2.96639 7.6302 2.61798 7.55484 2.64833 7.31285C2.66413 7.18677 2.83771 7.05787 3.16909 6.9261Z" fill="white"/>
  </g>
  <defs>
    <clipPath id="clip0_317_8458">
      <rect width="14" height="14" fill="white"/>
    </clipPath>
  </defs>
</svg>