<svg xmlns="http://www.w3.org/2000/svg" width="61" height="60" viewBox="0 0 61 60" fill="none">
  <path fill-rule="evenodd" clip-rule="evenodd" d="M30.5 12C20.559 12 12.5 20.059 12.5 30C12.5 39.941 20.559 48 30.5 48C40.441 48 48.5 39.941 48.5 30C48.5 20.059 40.441 12 30.5 12ZM30.4866 20.3721C29.7715 20.3717 29.0634 20.5121 28.4026 20.7853C27.7417 21.0585 27.1412 21.4593 26.6353 21.9646C26.1293 22.4699 25.7279 23.0699 25.4538 23.7304C25.1798 24.3909 25.0385 25.0989 25.038 25.814C25.0385 26.529 25.1798 27.237 25.4538 27.8975C25.7279 28.558 26.1293 29.158 26.6353 29.6633C27.1412 30.1686 27.7417 30.5694 28.4026 30.8426C29.0634 31.1158 29.7715 31.2563 30.4866 31.2558C31.9305 31.2563 33.3154 30.6832 34.3368 29.6627C35.3583 28.6422 35.9326 27.2578 35.9335 25.814C35.9326 24.3701 35.3583 22.9857 34.3368 21.9652C33.3154 20.9447 31.9305 20.3716 30.4866 20.3721ZM38.9407 37.5014C34.4751 32.6791 26.4395 32.9286 22.0676 37.4947L21.7528 37.8078C21.6324 37.9283 21.5378 38.072 21.4747 38.2301C21.4116 38.3883 21.3813 38.5577 21.3857 38.7279C21.39 38.8982 21.429 39.0658 21.5002 39.2205C21.5714 39.3752 21.6733 39.5138 21.7997 39.6279C24.1004 41.7075 27.1528 42.9767 30.5 42.9767C33.8472 42.9767 36.8996 41.7075 39.202 39.6279C39.3283 39.5137 39.4301 39.375 39.5011 39.2202C39.5721 39.0654 39.6109 38.8978 39.6152 38.7276C39.6194 38.5573 39.5889 38.388 39.5257 38.2299C39.4624 38.0718 39.3677 37.9282 39.2472 37.8078L38.9407 37.5014Z" fill="url(#paint0_linear_506_2565)"/>
  <defs>
    <linearGradient id="paint0_linear_506_2565" x1="30.5" y1="48" x2="30.5" y2="12" gradientUnits="userSpaceOnUse">
      <stop stop-color="#112D60"/>
      <stop offset="1" stop-color="#8833EE"/>
    </linearGradient>
  </defs>
</svg>