<svg xmlns="http://www.w3.org/2000/svg" width="14" height="14" viewBox="0 0 14 14" fill="none">
  <g clip-path="url(#clip0_317_8468)">
    <path d="M7 14C10.866 14 14 10.866 14 7C14 3.13401 10.866 0 7 0C3.13401 0 0 3.13401 0 7C0 10.866 3.13401 14 7 14Z" fill="#00A1F5"/>
    <path d="M10.0075 3.99214C9.31143 3.29605 8.39556 2.86285 7.41593 2.76635C6.43629 2.66985 5.45351 2.91602 4.63503 3.46292C3.81655 4.00981 3.21303 4.82359 2.92731 5.76559C2.64159 6.70759 2.69134 7.71951 3.06809 8.62894C3.44484 9.53837 4.12528 10.289 4.99346 10.753C5.86163 11.217 6.86383 11.3655 7.82927 11.1734C8.79472 10.9813 9.66367 10.4603 10.2881 9.6993C10.9125 8.9383 11.2537 7.98433 11.2535 6.99995C11.2549 6.44113 11.1455 5.88757 10.9316 5.37129C10.7178 4.85501 10.4036 4.38626 10.0075 3.99214ZM9.95906 5.28659H9.00504C8.92132 4.88279 8.79397 4.48928 8.62524 4.113C8.59953 4.05667 8.57301 4.00226 8.54566 3.94894C9.13568 4.2495 9.62658 4.71373 9.95961 5.28605L9.95906 5.28659ZM10.4209 6.99995C10.421 7.29729 10.3823 7.59337 10.3058 7.88069H9.13547C9.1949 7.29504 9.1949 6.70487 9.13547 6.11921H10.3058C10.3823 6.40653 10.421 6.70261 10.4209 6.99995ZM3.5784 6.99995C3.57828 6.70261 3.61698 6.40653 3.69352 6.11921H4.86383C4.8044 6.70487 4.8044 7.29504 4.86383 7.88069H3.69352C3.61698 7.59337 3.57828 7.29729 3.5784 6.99995ZM5.65242 6.99995C5.6522 6.70569 5.66845 6.41165 5.70109 6.11921H8.29875C8.36365 6.70458 8.36365 7.29533 8.29875 7.88069H5.70109C5.66845 7.58825 5.6522 7.29421 5.65242 6.99995ZM6.99965 3.5787C7.29004 3.5787 7.61461 3.90819 7.86836 4.46026C7.98809 4.7261 8.08265 5.00257 8.15082 5.28605H5.84848C5.91665 5.00257 6.01121 4.7261 6.13094 4.46026C6.38469 3.90819 6.70926 3.5787 6.99965 3.5787ZM5.45363 3.94866C5.42629 4.00171 5.39895 4.05612 5.37406 4.11273C5.20533 4.48901 5.07798 4.88252 4.99426 5.28632H4.03969C4.37264 4.7138 4.86355 4.24938 5.45363 3.94866ZM4.03969 8.71386H4.99426C5.07802 9.11774 5.20536 9.51133 5.37406 9.88773C5.39977 9.94387 5.42629 9.99856 5.45363 10.0518C4.86351 9.751 4.3726 9.28648 4.03969 8.71386ZM6.99965 10.4212C6.70926 10.4212 6.38469 10.0917 6.13094 9.53964C6.01121 9.2738 5.91665 8.99733 5.84848 8.71386H8.15082C8.08265 8.99733 7.98809 9.2738 7.86836 9.53964C7.61461 10.0917 7.29004 10.4212 6.99965 10.4212ZM8.54566 10.0512C8.57301 9.99819 8.60035 9.94378 8.62524 9.88718C8.79394 9.51088 8.92128 9.11738 9.00504 8.71359H9.95961C9.62666 9.2861 9.13575 9.75053 8.54566 10.0512Z" fill="white"/>
  </g>
  <defs>
    <clipPath id="clip0_317_8468">
      <rect width="14" height="14" fill="white"/>
    </clipPath>
  </defs>
</svg>