<svg xmlns="http://www.w3.org/2000/svg" width="14" height="14" viewBox="0 0 14 14" fill="none">
  <g clip-path="url(#clip0_317_8474)">
    <path d="M7 14C10.866 14 14 10.866 14 7C14 3.13401 10.866 0 7 0C3.13401 0 0 3.13401 0 7C0 10.866 3.13401 14 7 14Z" fill="#00A1F5"/>
    <path d="M11.5347 4.18797C11.1936 4.33692 10.8328 4.43588 10.4635 4.48178C10.8528 4.25091 11.1439 3.88514 11.2814 3.45389C10.917 3.67018 10.5182 3.82252 10.1024 3.90428C9.84764 3.63179 9.51674 3.44228 9.15277 3.36039C8.78881 3.27851 8.40863 3.30804 8.06168 3.44515C7.71473 3.58226 7.41707 3.8206 7.20741 4.12918C6.99775 4.43775 6.8858 4.80228 6.88612 5.17534C6.88481 5.31773 6.89933 5.45983 6.92941 5.59902C6.18978 5.56269 5.46613 5.37074 4.80574 5.0357C4.14534 4.70066 3.56305 4.23007 3.09691 3.65468C2.8573 4.064 2.78307 4.54938 2.88939 5.01161C2.9957 5.47383 3.27453 5.87801 3.66888 6.14152C3.37454 6.13358 3.08642 6.05492 2.82888 5.91218V5.93244C2.82971 6.36149 2.97822 6.77718 3.24944 7.10963C3.52067 7.44207 3.89808 7.67102 4.31822 7.75797C4.15922 7.79974 3.99538 7.82018 3.83099 7.81876C3.71262 7.82094 3.59436 7.81044 3.47822 7.78744C3.59859 8.15643 3.83033 8.47907 4.14157 8.71097C4.4528 8.94287 4.82824 9.07264 5.21625 9.08244C4.55873 9.59638 3.74816 9.87554 2.91362 9.87547C2.76492 9.87673 2.6163 9.86812 2.46875 9.84968C3.31968 10.3983 4.31156 10.6882 5.32401 10.6842C8.74572 10.6842 10.6164 7.85007 10.6164 5.39363C10.6164 5.31165 10.6164 5.23244 10.6099 5.15323C10.9742 4.89031 11.2876 4.56321 11.5347 4.18797Z" fill="white"/>
  </g>
  <defs>
    <clipPath id="clip0_317_8474">
      <rect width="14" height="14" fill="white"/>
    </clipPath>
  </defs>
</svg>